<svg width="32" height="32" viewBox="0 0 32 32" fill="none" xmlns="http://www.w3.org/2000/svg">
<g clip-path="url(#clip0_75_9124)">
<path d="M26 0H6C2.68629 0 0 2.68629 0 6V26C0 29.3137 2.68629 32 6 32H26C29.3137 32 32 29.3137 32 26V6C32 2.68629 29.3137 0 26 0Z" fill="#111827"/>
<path d="M12.454 23.2938C13.1727 23.2938 13.8107 22.9491 14.368 22.2598C14.94 21.5705 15.3873 20.6025 15.71 19.3558L17.888 11.0398C18.108 10.2185 18.218 9.61714 18.218 9.2358C18.218 8.81047 18.0567 8.5318 17.734 8.3998C17.4113 8.25314 16.7733 8.17981 15.82 8.17981L16.062 7.2998H23.212L22.97 8.17981C22.3833 8.17981 21.914 8.2678 21.562 8.4438C21.2247 8.6198 20.9387 8.97181 20.704 9.49981C20.4693 10.0131 20.22 10.7758 19.956 11.7878L17.756 20.1478C17.3893 21.5265 16.744 22.5898 15.82 23.3378C14.896 24.0858 13.774 24.4598 12.454 24.4598C11.3687 24.4598 10.518 24.2105 9.902 23.7118C9.30067 23.2131 9 22.5165 9 21.6218C9 20.9178 9.18333 20.3311 9.55 19.8618C9.91667 19.3925 10.3787 19.1578 10.936 19.1578C11.332 19.1578 11.6547 19.2751 11.904 19.5098C12.168 19.7445 12.3 20.0525 12.3 20.4338C12.3 20.7125 12.2413 20.9325 12.124 21.0938C12.0067 21.2551 11.8747 21.3945 11.728 21.5118C11.5813 21.6291 11.4493 21.7465 11.332 21.8638C11.2147 21.9811 11.156 22.1425 11.156 22.3478C11.156 22.6265 11.2807 22.8538 11.53 23.0298C11.7793 23.2058 12.0873 23.2938 12.454 23.2938Z" fill="white"/>
</g>
<defs>
<clipPath id="clip0_75_9124">
<rect width="32" height="32" fill="white"/>
</clipPath>
</defs>
</svg>
